<svg width="64" height="64" viewBox="0 0 64 64" version="1.1" xmlns="http://www.w3.org/2000/svg" xmlns:svg="http://www.w3.org/2000/svg">
    <path fill="#c01c28" d="M 32,4 A 28,28 0 0 0 4,32 28,28 0 0 0 32,60 Z" />
    <path fill="#ffffff" d="M 32,8 A 24,24 0 0 0 8,32 24,24 0 0 0 32,56 Z" />
    <path fill="#000000" d="m 32,12 a 4,4 0 0 0 -4,4 4,24 0 0 0 4,24 z m 0,32 A 4,4 0 0 0 28,48 a 4,4 0 0 0 4,4 z" />
    <rect fill="#cc4550" opacity="0.48" width="8" height="8" x="32" y="0" />
    <rect fill="#c3262d" opacity="0.13" width="8" height="8" x="40" y="0" />
    <rect fill="#cdbfc0" width="8" height="8" x="32" y="8" />
    <rect fill="#e2989d" width="8" height="8" x="40" y="8" />
    <rect fill="#cf535b" opacity="0.48" width="8" height="8" x="48" y="8" />
    <rect fill="#898989" width="8" height="8" x="32" y="16" />
    <rect fill="#ffffff" width="8" height="8" x="40" y="16" />
    <rect fill="#e2989d" width="8" height="8" x="48" y="16" />
    <rect fill="#c3262d" opacity="0.13" width="8" height="8" x="56" y="16" />
    <rect fill="#9b9b9b" width="8" height="8" x="32" y="24" />
    <rect fill="#ffffff" width="8" height="8" x="40" y="24" />
    <rect fill="#f9eaeb" width="8" height="8" x="48" y="24" />
    <rect fill="#cc4650" opacity="0.48" width="8" height="8" x="56" y="24" />
    <rect fill="#c2c2c2" width="8" height="8" x="32" y="32" />
    <rect fill="#ffffff" width="8" height="8" x="40" y="32" />
    <rect fill="#f8e7e8" width="8" height="8" x="48" y="32" />
    <rect fill="#cb454f" opacity="0.48" width="8" height="8" x="56" y="32" />
    <rect fill="#d2d2d2" width="8" height="8" x="32" y="40" />
    <rect fill="#ffffff" width="8" height="8" x="40" y="40" />
    <rect fill="#e2989d" width="8" height="8" x="48" y="40" />
    <rect fill="#c3262d" opacity="0.13" width="8" height="8" x="56" y="40" />
    <rect fill="#cdbfc0" width="8" height="8" x="32" y="48" />
    <rect fill="#e3989e" opacity="0.996" width="8" height="8" x="40" y="48" />
    <rect fill="#d1505b" opacity="0.48" width="8" height="8" x="48" y="48" />
    <rect fill="#cc4650" opacity="0.48" width="8" height="8" x="32" y="56" />
    <rect fill="#c1272e" opacity="0.13" width="8" height="8" x="40" y="56" />
</svg>
